<?xml version="1.0" encoding="UTF-8"?>
<svg version="1.1" xmlns="http://www.w3.org/2000/svg" width="500" height="500">
<path d="M0 0 C0.99379669 -0.01261871 1.98759338 -0.02523743 3.01150513 -0.03823853 C25.33337691 -0.26652472 46.66396978 -0.05739816 68.45703125 5.2734375 C69.63410645 5.55751465 70.81118164 5.8415918 72.02392578 6.13427734 C102.17763483 13.62903596 131.17716866 26.08566306 156.45703125 44.2734375 C157.11010254 44.73862793 157.76317383 45.20381836 158.43603516 45.68310547 C167.00952404 51.82343862 175.00145594 58.3323054 182.63671875 65.60546875 C184.90032107 67.74679893 187.19344156 69.77649916 189.58203125 71.7734375 C200.40895041 81.2215632 208.94667899 92.78596554 217.45703125 104.2734375 C218.44316406 105.58054688 218.44316406 105.58054688 219.44921875 106.9140625 C238.37040335 132.80620985 251.55516085 164.06302191 258.45703125 195.2734375 C258.68551758 196.23894531 258.91400391 197.20445312 259.14941406 198.19921875 C263.20535948 215.82803701 263.96086838 233.10985169 264.01953125 251.1484375 C264.02820221 252.21433105 264.03687317 253.28022461 264.04580688 254.37841797 C264.13427962 270.04608004 262.54672447 284.91826452 259.45703125 300.2734375 C259.21106201 301.5094873 258.96509277 302.74553711 258.71166992 304.01904297 C258.12037467 306.78892471 257.47332837 309.5302135 256.76953125 312.2734375 C256.39671021 313.73414673 256.39671021 313.73414673 256.01635742 315.22436523 C245.6921054 354.07033673 225.31495538 393.33180626 196.22265625 421.5078125 C194.25429647 423.41695882 194.25429647 423.41695882 191.95703125 426.3359375 C189.38573941 429.35720541 186.67354118 431.81894941 183.65625 434.37890625 C182.19220854 435.64011426 180.75649493 436.93498293 179.3515625 438.26171875 C142.80980536 472.66505981 94.240079 491.36114972 45.45703125 499.2734375 C44.56790039 499.45156982 43.67876953 499.62970215 42.76269531 499.81323242 C38.16924095 500.45271998 33.62142327 500.49539591 28.98828125 500.546875 C27.96759048 500.55935776 26.94689972 500.57184052 25.89527893 500.58470154 C3.19922199 500.80829584 -18.37325472 500.50861571 -40.54296875 495.2734375 C-41.44837402 495.07057129 -42.3537793 494.86770508 -43.28662109 494.65869141 C-48.77867475 493.41479581 -54.16784411 491.9498436 -59.54296875 490.2734375 C-60.31656738 490.03431641 -61.09016602 489.79519531 -61.88720703 489.54882812 C-96.65685015 478.5859984 -128.17181579 460.11596189 -155.046875 435.546875 C-156.68459567 434.05524209 -158.33792298 432.58052969 -160.0078125 431.125 C-203.9016231 392.70924791 -231.62912695 332.05922404 -236.54296875 274.2734375 C-236.70372625 270.78515272 -236.75251968 267.30023454 -236.78125 263.80859375 C-236.79104385 262.82592026 -236.80083771 261.84324677 -236.81092834 260.83079529 C-236.97335194 240.32044474 -237.11835363 220.37170348 -232.54296875 200.2734375 C-232.32866211 199.27634766 -232.11435547 198.27925781 -231.89355469 197.25195312 C-223.97827152 160.82091182 -208.26142355 125.20995236 -184.54296875 96.2734375 C-183.85203125 95.39171875 -183.16109375 94.51 -182.44921875 93.6015625 C-172.93535789 81.60273798 -162.30137785 70.0984759 -150.54296875 60.2734375 C-150.03427246 59.8417627 -149.52557617 59.41008789 -149.00146484 58.96533203 C-108.0786401 24.40108164 -54.11646266 0.62635202 0 0 Z " fill="#FEF6E3" transform="translate(236.54296875,-0.2734375)"/>
<path d="M0 0 C5.57276301 3.56786181 8.91950427 7.08753218 12.20703125 12.85546875 C12.86058594 13.97050781 13.51414063 15.08554687 14.1875 16.234375 C18.78101275 25.53320283 19.54824905 35.39053449 19.45703125 45.60546875 C19.45018311 46.78737793 19.44333496 47.96928711 19.4362793 49.18701172 C19.162711 64.10724237 15.90471 78.40779 5.01953125 89.29296875 C-5.59511632 97.02649769 -15.94502523 99.37176408 -28.98046875 98.29296875 C-38.42716634 96.73153113 -44.3510129 91.9224246 -50.98046875 85.29296875 C-50.98046875 102.12296875 -50.98046875 118.95296875 -50.98046875 136.29296875 C-53.62046875 136.62296875 -56.26046875 136.95296875 -58.98046875 137.29296875 C-60.98735854 139.26636238 -60.98735854 139.26636238 -62.10546875 141.91796875 C-67.63586467 152.28561764 -75.24449693 159.01816876 -86.41796875 163.23046875 C-98.85839396 166.39531292 -112.81881744 165.7402665 -123.98046875 159.29296875 C-125.62015625 158.36484375 -125.62015625 158.36484375 -127.29296875 157.41796875 C-134.18438826 151.96893937 -138.95295621 146.12831132 -142.98046875 138.29296875 C-143.32335937 137.63039063 -143.66625 136.9678125 -144.01953125 136.28515625 C-148.39182729 125.8651984 -147.08608322 111.62183023 -143.37109375 101.26171875 C-137.56732475 88.87165011 -128.40609445 81.46562741 -115.98046875 76.29296875 C-103.28406507 72.05091125 -91.84350278 73.56957514 -79.98046875 79.29296875 C-78.00046875 80.28296875 -78.00046875 80.28296875 -75.98046875 81.29296875 C-75.98046875 53.57296875 -75.98046875 25.85296875 -75.98046875 -2.70703125 C-67.73046875 -2.70703125 -59.48046875 -2.70703125 -50.98046875 -2.70703125 C-50.98046875 1.58296875 -50.98046875 5.87296875 -50.98046875 10.29296875 C-50.29984375 9.59171875 -49.61921875 8.89046875 -48.91796875 8.16796875 C-47.94237389 7.20599952 -46.96289171 6.24796366 -45.98046875 5.29296875 C-45.47257812 4.78894531 -44.9646875 4.28492188 -44.44140625 3.765625 C-32.12791537 -7.70167812 -14.47737791 -7.22291839 0 0 Z " fill="#030202" transform="translate(238.98046875,270.70703125)"/>
<path d="M0 0 C3.30707098 2.23752223 6.07144593 4.71132881 8.75 7.6875 C9.430625 8.409375 10.11125 9.13125 10.8125 9.875 C16.58176132 18.24973417 18.00972744 26.62082851 16.75 36.6875 C14.56074324 45.07124364 10.2906011 51.96988844 3.75 57.6875 C3.09 57.6875 2.43 57.6875 1.75 57.6875 C1.75 64.6175 1.75 71.5475 1.75 78.6875 C3.4 77.0375 5.05 75.3875 6.75 73.6875 C16.45201651 65.01233925 24.87185215 62.90900244 37.64453125 63.33984375 C45.2296528 63.82289532 51.65376774 66.67111028 57.21875 71.85546875 C63.44130507 79.30031142 66.00965997 88.73695857 65.97705078 98.27514648 C65.97734283 98.99793289 65.97763489 99.7207193 65.97793579 100.46540833 C65.97655393 102.82993003 65.96104739 105.1941278 65.9453125 107.55859375 C65.94157829 109.20768563 65.93873325 110.85677974 65.93673706 112.50587463 C65.92913271 116.82789326 65.90951198 121.14977561 65.8873291 125.47174072 C65.86680148 129.88934486 65.8577206 134.3069712 65.84765625 138.72460938 C65.82626281 147.37897549 65.79110703 156.03320505 65.75 164.6875 C57.5 164.6875 49.25 164.6875 40.75 164.6875 C40.73541748 162.69976562 40.72083496 160.71203125 40.70581055 158.6640625 C40.65402751 152.07417241 40.58870645 145.48452353 40.51428509 138.89485168 C40.46968239 134.90208989 40.43040454 130.90942775 40.40356445 126.91650391 C40.37742997 123.05836487 40.33695731 119.20061144 40.28681374 115.3427124 C40.27021322 113.87567973 40.25865669 112.40858047 40.25238609 110.94146729 C40.22149721 99.97259558 40.22149721 99.97259558 36.75 89.6875 C32.13081914 85.21266854 26.9506516 85.34011894 20.828125 85.4140625 C15.61262923 85.87736796 11.83726972 87.48278799 8.22265625 91.30078125 C4.06492389 96.73596182 2.51484698 102.22499628 2.43115234 109.06005859 C2.41128265 110.30089203 2.39141296 111.54172546 2.37094116 112.82015991 C2.35906767 114.15875063 2.34740464 115.49734324 2.3359375 116.8359375 C2.31720909 118.21742895 2.29763444 119.59890916 2.2772522 120.9803772 C2.22610139 124.6002945 2.18638503 128.22024882 2.14910889 131.84033203 C2.10896173 135.54078195 2.05791848 139.24108015 2.0078125 142.94140625 C1.9112553 150.19000757 1.82779481 157.43866858 1.75 164.6875 C-6.5 164.6875 -14.75 164.6875 -23.25 164.6875 C-23.58 131.3575 -23.91 98.0275 -24.25 63.6875 C-27.88 62.3675 -31.51 61.0475 -35.25 59.6875 C-43.45719767 53.62131042 -48.87902442 46.71608592 -51.25 36.6875 C-52.6003944 24.91050264 -50.28687367 16.53845896 -43.30859375 7.046875 C-32.64229007 -5.17788292 -13.97314112 -8.32108404 0 0 Z " fill="#020201" transform="translate(186.25,80.3125)"/>
<path d="M0 0 C0.79535156 0.350625 1.59070313 0.70125 2.41015625 1.0625 C14.24327088 6.90801803 20.58583481 16.72743773 25.03125 28.80078125 C29.79883341 44.75894239 27.67685833 62.34950701 20 77 C13.49801169 88.21032467 4.0181499 93.87710142 -8.125 97.875 C-21.2423706 101.04060822 -35.53314975 99.96862637 -47.515625 93.6796875 C-59.34784445 86.31473457 -66.20693206 76.34727397 -69.875 62.9375 C-73.18313398 46.41663927 -71.92138786 29.42450065 -62.484375 15.10546875 C-61.74960937 14.06326172 -61.74960937 14.06326172 -61 13 C-60.278125 11.948125 -59.55625 10.89625 -58.8125 9.8125 C-52.05558983 3.05558983 -44.23695386 -0.85952941 -35 -3 C-34.37988037 -3.17055908 -33.75976074 -3.34111816 -33.12084961 -3.5168457 C-22.34475955 -5.9717648 -9.91418019 -4.58738322 0 0 Z " fill="#040303" transform="translate(334,150)"/>
<path d="M0 0 C7.25482028 7.14768158 10.94939093 17.11244145 11.1796875 27.13671875 C11.16918435 29.36601278 11.14288692 31.59528302 11.1015625 33.82421875 C11.09640625 34.96761719 11.09125 36.11101562 11.0859375 37.2890625 C11.00621811 45.66956314 11.00621811 45.66956314 9.8515625 46.82421875 C7.82662019 46.91831354 5.7983638 46.94164997 3.77124023 46.93774414 C1.81933022 46.93763084 1.81933022 46.93763084 -0.17201233 46.93751526 C-1.60295652 46.93240784 -3.03390032 46.92719183 -4.46484375 46.921875 C-5.9207301 46.92001078 -7.37661707 46.9185869 -8.83250427 46.91758728 C-12.67123129 46.9137624 -16.50992069 46.90393239 -20.34863281 46.8928833 C-24.26301566 46.88266853 -28.17740456 46.87808952 -32.09179688 46.87304688 C-39.77736093 46.86231009 -47.46289395 46.84523404 -55.1484375 46.82421875 C-54.52362571 48.91789293 -53.8937478 51.01005571 -53.26171875 53.1015625 C-52.91149658 54.26679443 -52.56127441 55.43202637 -52.20043945 56.63256836 C-50.46060639 61.91101757 -48.38726909 65.26714909 -43.6484375 68.13671875 C-35.61121688 72.01180726 -26.98530721 71.78665525 -18.53515625 69.09375 C-14.75708083 67.08413542 -12.51653805 64.01318176 -10.03515625 60.58984375 C-8.1484375 58.82421875 -8.1484375 58.82421875 -5.84375 58.7734375 C-2.30846592 60.15168593 0.61810992 62.16931961 3.6640625 64.38671875 C4.26154297 64.81146484 4.85902344 65.23621094 5.47460938 65.67382812 C6.93896783 66.71645134 8.39601985 67.76932327 9.8515625 68.82421875 C8.55865435 75.58943583 3.18636708 81.17885862 -2.01953125 85.44140625 C-14.74192784 93.70512807 -29.08050606 94.14703073 -43.7109375 92.3984375 C-55.36929927 89.87142557 -65.26184366 83.56154213 -72.1484375 73.82421875 C-81.05508263 59.64819719 -82.31961371 42.13981713 -79.45703125 25.90234375 C-78.55315049 22.74065205 -77.48170076 19.82822753 -76.1484375 16.82421875 C-75.7359375 15.86386719 -75.3234375 14.90351563 -74.8984375 13.9140625 C-70.01941322 3.83721406 -62.26530299 -3.04498154 -51.921875 -7.24609375 C-34.51832038 -13.07996135 -14.66758619 -11.59966478 0 0 Z " fill="#030302" transform="translate(346.1484375,276.17578125)"/>
<path d="M0 0 C22.44 0 44.88 0 68 0 C68 38.28 68 76.56 68 116 C48.2 116.33 28.4 116.66 8 117 C10.97 112.545 10.97 112.545 14 108 C21.57735437 94.18788074 23.29550931 78.00717203 19.875 62.625 C16.0357348 49.77412622 9.68115331 41.01086498 -1 33 C-0.67 22.11 -0.34 11.22 0 0 Z " fill="#FAEB79" transform="translate(339,119)"/>
<path d="M0 0 C0 18.15 0 36.3 0 55 C5.61 55 11.22 55 17 55 C11.07557336 67.92602175 3.19099421 76.7846771 -10.4375 81.9375 C-22.87792521 85.10234417 -36.83834869 84.44729775 -48 78 C-49.093125 77.38125 -50.18625 76.7625 -51.3125 76.125 C-58.20391951 70.67597062 -62.97248746 64.83534257 -67 57 C-67.34289062 56.33742188 -67.68578125 55.67484375 -68.0390625 54.9921875 C-72.41135854 44.57222965 -71.10561447 30.32886148 -67.390625 19.96875 C-61.586856 7.57868136 -52.4256257 0.17265866 -40 -5 C-25.3302498 -9.90138195 -13.37976048 -6.68988024 0 0 Z " fill="#648DC9" transform="translate(163,352)"/>
<path d="M0 0 C8.91 0 17.82 0 27 0 C27 23.43 27 46.86 27 71 C16.44 71 5.88 71 -5 71 C-3.02 68.03 -1.04 65.06 1 62 C1.33 60.68 1.66 59.36 2 58 C-0.26562546 56.49157829 -2.53686163 54.99317749 -4.8125 53.5 C-5.45509766 53.07074219 -6.09769531 52.64148438 -6.75976562 52.19921875 C-10.55784786 49.6406632 -10.55784786 49.6406632 -15 49 C-16.69792245 50.67006079 -16.69792245 50.67006079 -18.3125 52.8125 C-22.41432537 57.70014875 -26.59478415 60.27213456 -33 61 C-40.99984183 61.5684463 -46.95573304 60.57362443 -53.75 56.25 C-59.95827167 50.04172833 -60.37399713 44.94301576 -62 36 C-40.55 35.67 -19.1 35.34 3 35 C4.19728286 12.25089177 4.19728286 12.25089177 0 0 Z " fill="#B8DF86" transform="translate(353,287)"/>
<path d="M0 0 C3.30707098 2.23752223 6.07144593 4.71132881 8.75 7.6875 C9.430625 8.409375 10.11125 9.13125 10.8125 9.875 C16.58176132 18.24973417 18.00972744 26.62082851 16.75 36.6875 C14.56074324 45.07124364 10.2906011 51.96988844 3.75 57.6875 C3.09 57.6875 2.43 57.6875 1.75 57.6875 C1.75 47.1275 1.75 36.5675 1.75 25.6875 C-6.5 25.6875 -14.75 25.6875 -23.25 25.6875 C-23.25 38.2275 -23.25 50.7675 -23.25 63.6875 C-35.25111001 60.087167 -40.81185047 56.41420192 -47.83984375 46.3125 C-51.97661503 38.61191745 -52.24848989 30.21770246 -51.25 21.6875 C-47.64110426 11.29434894 -41.78182002 4.03761833 -32.25 -1.3125 C-22.05310959 -6.09006404 -9.7387261 -5.7994661 0 0 Z " fill="#DC3921" transform="translate(186.25,80.3125)"/>
<path d="M0 0 C5.89329137 3.01517233 9.63930534 7.27835589 11.8203125 13.53125 C13.42939493 18.62286881 13.72599836 23.43576387 13.6875 28.75 C13.68177979 29.66918213 13.67605957 30.58836426 13.67016602 31.53540039 C13.45281648 39.83639639 12.0073633 46.93361466 6.5078125 53.41796875 C0.73757625 58.81634533 -5.33382956 59.92445712 -13.06640625 59.74609375 C-18.9595734 59.08384595 -23.08644342 56.50632188 -27.125 52.25 C-32.58232276 45.09546179 -33.31685325 37.25777516 -33.25 28.5 C-33.26998047 27.57509766 -33.28996094 26.65019531 -33.31054688 25.69726562 C-33.30514646 17.9908671 -31.76570065 11.10111273 -26.84765625 5 C-26.19667969 4.484375 -25.54570312 3.96875 -24.875 3.4375 C-24.22660156 2.90125 -23.57820313 2.365 -22.91015625 1.8125 C-15.93481993 -2.75978749 -7.70113232 -3.03614861 0 0 Z " fill="#FBF4E1" transform="translate(321.8125,168.5625)"/>
<path d="M0 0 C6.56776216 3.00240556 10.10385102 7.63554372 12.92578125 14.125 C16.8044624 25.76104344 15.69431989 39.23803806 10.61328125 50.3125 C7.39518363 55.65435657 3.70317366 58.61531687 -2.38671875 60.3125 C-9.52242219 61.16707526 -15.51650325 60.67654178 -21.38671875 56.3125 C-26.7559834 51.49236469 -29.89625604 45.78663187 -30.68823242 38.56201172 C-30.82493687 35.49386856 -30.84521366 32.44598231 -30.82421875 29.375 C-30.84419922 28.34181641 -30.86417969 27.30863281 -30.88476562 26.24414062 C-30.87978026 18.37224309 -29.59115235 12.06143697 -24.38671875 5.97265625 C-23.72671875 5.44542969 -23.06671875 4.91820312 -22.38671875 4.375 C-21.72671875 3.82972656 -21.06671875 3.28445313 -20.38671875 2.72265625 C-14.22836974 -1.61946092 -7.26217985 -2.09188814 0 0 Z " fill="#FBF3E1" transform="translate(218.38671875,287.6875)"/>
<path d="M0 0 C4.0723708 2.94579281 6.95373717 5.9862115 8.5625 10.8125 C8.5625 13.7825 8.5625 16.7525 8.5625 19.8125 C-4.9675 19.8125 -18.4975 19.8125 -32.4375 19.8125 C-29.54038809 5.32694043 -29.54038809 5.32694043 -22.4296875 0.4296875 C-15.30711773 -3.22094862 -7.0722614 -4.15396766 0 0 Z " fill="#B8DF87" transform="translate(324.4375,287.1875)"/>
<path d="M0 0 C23.1 0 46.2 0 70 0 C70 38.94 70 77.88 70 118 C69.34 118 68.68 118 68 118 C68 118.66 68 119.32 68 120 C48.86 119.67 29.72 119.34 10 119 C10 118.34 10 117.68 10 117 C29.14 117 48.28 117 68 117 C68 78.72 68 40.44 68 1 C45.56 1 23.12 1 0 1 C0 0.67 0 0.34 0 0 Z " fill="#FEF5C1" transform="translate(339,118)"/>
<path d="M0 0 C6.93 0 13.86 0 21 0 C21 7.92 21 15.84 21 24 C13.93591477 24 11.20579216 22.46210757 6 18 C1.49066838 12.92226524 0.96431742 6.50914255 0 0 Z " fill="#F9F3E0" transform="translate(291,323)"/>
<path d="M0 0 C22.44 0 44.88 0 68 0 C68 38.28 68 76.56 68 116 C48.2 116.33 28.4 116.66 8 117 C14 108 14 108 16 107 C15.125 111.75 15.125 111.75 14 114 C30.83 114 47.66 114 65 114 C65.70850406 110.45747968 66.1296671 107.80228039 66.15821838 104.29862976 C66.1680072 103.3830278 66.17779602 102.46742584 66.18788147 101.52407837 C66.19363693 100.53217499 66.1993924 99.54027161 66.20532227 98.51831055 C66.21522186 97.46419479 66.22512146 96.41007904 66.23532104 95.32402039 C66.2668711 91.84494257 66.29166788 88.36585111 66.31640625 84.88671875 C66.33698138 82.47247465 66.357978 80.05823411 66.37937927 77.64399719 C66.43454219 71.29335412 66.483977 64.94267884 66.53222656 58.59197998 C66.59132177 50.97024772 66.65751796 43.34857424 66.72252655 35.72689056 C66.82046334 24.15129631 66.90936928 12.57566415 67 1 C45.55 1 24.1 1 2 1 C0.99547571 19.63269479 0.99547571 19.63269479 5 37 C3.02 36.01 1.04 35.02 -1 34 C-0.67 22.78 -0.34 11.56 0 0 Z " fill="#F4E992" transform="translate(339,119)"/>
<path d="M0 0 C1.57924842 3.15849685 1.14316514 6.5365128 1.125 10 C1.13080078 11.10601562 1.13080078 11.10601562 1.13671875 12.234375 C1.1266598 17.7466804 1.1266598 17.7466804 0 20 C0.66 20.33 1.32 20.66 2 21 C-4.6 21 -11.2 21 -18 21 C-16.9647111 13.54591989 -15.43543003 8.3710292 -10 3 C-6.191033 0.56226112 -4.55479942 0 0 0 Z " fill="#F9F2E0" transform="translate(310,286)"/>
<path d="M0 0 C8.25 0 16.5 0 25 0 C25 17.49 25 34.98 25 53 C24.67 53 24.34 53 24 53 C24 43.43 24 33.86 24 24 C23.01 24 22.02 24 21 24 C21 23.34 21 22.68 21 22 C21.66 22 22.32 22 23 22 C23 15.07 23 8.14 23 1 C15.74 1 8.48 1 1 1 C1 13.21 1 25.42 1 38 C0.67 38 0.34 38 0 38 C0 25.46 0 12.92 0 0 Z " fill="#2F0E0C" transform="translate(163,106)"/>
<path d="M0 0 C-1.32 0.33 -2.64 0.66 -4 1 C-4 1.66 -4 2.32 -4 3 C-17.86 2.67 -31.72 2.34 -46 2 C-46 8.93 -46 15.86 -46 23 C-45.01 23.33 -44.02 23.66 -43 24 C-44.32 24 -45.64 24 -47 24 C-47 16.08 -47 8.16 -47 0 C-40.78871546 -0.16566824 -34.57752474 -0.3281083 -28.3659668 -0.48217773 C-26.25231051 -0.53559143 -24.13870172 -0.5909203 -22.02514648 -0.64819336 C-18.98952478 -0.73012166 -15.95379962 -0.80519135 -12.91796875 -0.87890625 C-11.4975251 -0.91945885 -11.4975251 -0.91945885 -10.04838562 -0.96083069 C-9.16769913 -0.98092697 -8.28701263 -1.00102325 -7.37963867 -1.02172852 C-6.60464523 -1.04171402 -5.82965179 -1.06169952 -5.03117371 -1.08229065 C-3 -1 -3 -1 0 0 Z " fill="#BCD895" transform="translate(359,323)"/>
<path d="M0 0 C1.74965358 -0.05429959 3.49979787 -0.09292823 5.25 -0.125 C6.22453125 -0.14820313 7.1990625 -0.17140625 8.203125 -0.1953125 C11.0196498 0.00137219 12.60949036 0.55431084 15 2 C15 2.66 15 3.32 15 4 C11.37 4 7.74 4 4 4 C4.11341491 6.48020497 4.24014686 8.95844969 4.375 11.4375 C4.4059375 12.14455078 4.436875 12.85160156 4.46875 13.58007812 C4.57280629 15.39239188 4.77919892 17.19817988 5 19 C8.29960141 20.6498007 11.99127884 20.38258361 15.625 20.5625 C16.42679687 20.60568359 17.22859375 20.64886719 18.0546875 20.69335938 C20.0362511 20.79951457 22.01810271 20.90026855 24 21 C24 21.33 24 21.66 24 22 C20.54168414 22.02894547 17.08339928 22.04678 13.625 22.0625 C12.64015625 22.07087891 11.6553125 22.07925781 10.640625 22.08789062 C9.22910156 22.09272461 9.22910156 22.09272461 7.7890625 22.09765625 C6.48509521 22.10551147 6.48509521 22.10551147 5.15478516 22.11352539 C3 22 3 22 1 21 C1.01160156 19.73542969 1.02320313 18.47085937 1.03515625 17.16796875 C1.04453566 15.50781398 1.0536357 13.84765761 1.0625 12.1875 C1.07087891 11.35412109 1.07925781 10.52074219 1.08789062 9.66210938 C1.09111328 8.85966797 1.09433594 8.05722656 1.09765625 7.23046875 C1.10289307 6.49207764 1.10812988 5.75368652 1.11352539 4.99291992 C1.07523213 2.78942591 1.07523213 2.78942591 0 0 Z " fill="#BBD495" transform="translate(309,285)"/>
<path d="M0 0 C0.33 0.99 0.66 1.98 1 3 C-0.29486821 4.69672386 -1.63360658 6.3603279 -3 8 C-4.24016669 10.6794645 -4.24016669 10.6794645 -5 13 C-5.66 13 -6.32 13 -7 13 C-9.40184127 20.48920586 -9.22820296 27.68832984 -9.125 35.5 C-9.11597656 36.799375 -9.10695313 38.09875 -9.09765625 39.4375 C-9.07421733 42.62519299 -9.0414044 45.8124982 -9 49 C-13.02625397 44.97374603 -12.26694443 38.91257119 -12.3125 33.5 C-12.3125 19.98259763 -8.64538059 10.4709828 0 0 Z " fill="#7792BB" transform="translate(105,358)"/>
<path d="M0 0 C0.66 0 1.32 0 2 0 C2 12.54 2 25.08 2 38 C-0.64 37.34 -3.28 36.68 -6 36 C-6 35.67 -6 35.34 -6 35 C-4.02 35 -2.04 35 0 35 C0 23.45 0 11.9 0 0 Z " fill="#B33F2E" transform="translate(161,106)"/>
<path d="M0 0 C0.33 0 0.66 0 1 0 C1.33 17.49 1.66 34.98 2 53 C8.93 53.495 8.93 53.495 16 54 C16 54.33 16 54.66 16 55 C10.72 55 5.44 55 0 55 C0 36.85 0 18.7 0 0 Z " fill="#000215" transform="translate(163,352)"/>
<path d="M0 0 C0.66 0 1.32 0 2 0 C1.84015625 0.97195313 1.6803125 1.94390625 1.515625 2.9453125 C0.04091608 13.34671693 -0.19526791 24.26697846 4 34 C4.3562971 35.32738136 4.69592135 36.65969218 5 38 C0.98306754 34.6756421 -1.01071005 31.05476617 -2 26 C-2.56581919 17.12099119 -2.50086336 8.5967178 0 0 Z " fill="#E9EEF1" transform="translate(93,375)"/>
<path d="M0 0 C2 2 2 2 2.24291992 4.19555664 C2.23881104 5.09137451 2.23470215 5.98719238 2.23046875 6.91015625 C2.22853516 7.90080078 2.22660156 8.89144531 2.22460938 9.91210938 C2.21236328 10.95173828 2.20011719 11.99136719 2.1875 13.0625 C2.18685547 14.07505859 2.18621094 15.08761719 2.18554688 16.13085938 C2.08598324 33.28899316 2.08598324 33.28899316 -3 41 C-3.66 41 -4.32 41 -5 41 C-4.80664062 40.46632812 -4.61328125 39.93265625 -4.4140625 39.3828125 C-4.02347656 38.26519531 -4.02347656 38.26519531 -3.625 37.125 C-3.36976563 36.40570313 -3.11453125 35.68640625 -2.8515625 34.9453125 C-0.46254612 26.68238429 0.27403963 18.96197557 0.125 10.375 C0.11597656 9.37082031 0.10695313 8.36664063 0.09765625 7.33203125 C0.07437746 4.88775874 0.04168487 2.44401592 0 0 Z " fill="#F2E88B" transform="translate(360,184)"/>
<path d="M0 0 C0.89396484 -0.01224609 1.78792969 -0.02449219 2.70898438 -0.03710938 C7.32751052 -0.04739562 10.83508953 0.13026781 15.0625 2.1875 C17.77136941 2.35548262 17.77136941 2.35548262 20.0625 2.1875 C20.5575 4.1675 20.5575 4.1675 21.0625 6.1875 C19.45816191 5.70890759 17.85403584 5.22960442 16.25 4.75 C14.91001953 4.34974609 14.91001953 4.34974609 13.54296875 3.94140625 C11.70776945 3.38362127 9.88216274 2.79405425 8.0625 2.1875 C5.44710418 2.09052785 2.8645917 2.04827738 0.25 2.0625 C-0.44931641 2.05863281 -1.14863281 2.05476563 -1.86914062 2.05078125 C-5.99715562 2.05850438 -9.88877695 2.38665368 -13.9375 3.1875 C-13.9375 2.5275 -13.9375 1.8675 -13.9375 1.1875 C-9.30016746 -0.13754656 -4.79036925 0.00343889 0 0 Z " fill="#EDF2F1" transform="translate(137.9375,343.8125)"/>
<path d="M0 0 C5.5 -0.36666667 5.5 -0.36666667 7.875 1.375 C9 3 9 3 9 5 C5.98509443 6.00496852 3.95818308 6.10335303 0.8125 6.0625 C-0.53908203 6.04896484 -0.53908203 6.04896484 -1.91796875 6.03515625 C-2.60503906 6.02355469 -3.29210937 6.01195312 -4 6 C-3.01 5.34 -2.02 4.68 -1 4 C-0.27617533 1.94074861 -0.27617533 1.94074861 0 0 Z " fill="#AECE81" transform="translate(314,342)"/>
<path d="M0 0 C-0.33 1.65 -0.66 3.3 -1 5 C-1.639375 5.12375 -2.27875 5.2475 -2.9375 5.375 C-3.618125 5.58125 -4.29875 5.7875 -5 6 C-5.33 6.66 -5.66 7.32 -6 8 C-7.65 8 -9.3 8 -11 8 C-11.66 9.32 -12.32 10.64 -13 12 C-13.66 11.67 -14.32 11.34 -15 11 C-11.98347183 6.54078445 -5.81108308 0 0 0 Z " fill="#D14634" transform="translate(156,79)"/>
<path d="M0 0 C3.63 0 7.26 0 11 0 C11.33 0.66 11.66 1.32 12 2 C9.03 2 6.06 2 3 2 C3 8.27 3 14.54 3 21 C2.34 21 1.68 21 1 21 C1.01160156 19.73542969 1.02320313 18.47085937 1.03515625 17.16796875 C1.04453566 15.50781398 1.0536357 13.84765761 1.0625 12.1875 C1.07087891 11.35412109 1.07925781 10.52074219 1.08789062 9.66210938 C1.09111328 8.85966797 1.09433594 8.05722656 1.09765625 7.23046875 C1.10289307 6.49207764 1.10812988 5.75368652 1.11352539 4.99291992 C1.07523213 2.78942591 1.07523213 2.78942591 0 0 Z " fill="#D8DEBC" transform="translate(309,285)"/>
<path d="M0 0 C0.33 0 0.66 0 1 0 C1 9.24 1 18.48 1 28 C2.32 27.67 3.64 27.34 5 27 C3.625 29 3.625 29 2 31 C1.34 31 0.68 31 0 31 C0 20.77 0 10.54 0 0 Z " fill="#C64436" transform="translate(188,107)"/>
<path d="M0 0 C0.33 0.66 0.66 1.32 1 2 C1.66 2.33 2.32 2.66 3 3 C3 3.66 3 4.32 3 5 C2.2575 5.268125 1.515 5.53625 0.75 5.8125 C-1.99492605 6.86033789 -1.99492605 6.86033789 -4 8.5625 C-6.32462791 10.23332631 -8.19109059 10.60987369 -11 11 C-7.33333333 7.33333333 -3.66666667 3.66666667 0 0 Z " fill="#EFF0EB" transform="translate(172,419)"/>
<path d="M0 0 C0.33 0 0.66 0 1 0 C1.01981934 0.82725586 1.03963867 1.65451172 1.06005859 2.50683594 C1.15531212 6.25487806 1.26499109 10.00236317 1.375 13.75 C1.4059375 15.05195313 1.436875 16.35390625 1.46875 17.6953125 C1.50742187 18.94570312 1.54609375 20.19609375 1.5859375 21.484375 C1.6173584 22.63647461 1.6487793 23.78857422 1.68115234 24.97558594 C1.98401175 27.84834422 2.5088238 29.56179611 4 32 C2.02 31.01 0.04 30.02 -2 29 C-1.34 28.67 -0.68 28.34 0 28 C0 18.76 0 9.52 0 0 Z " fill="#F1E488" transform="translate(340,124)"/>
<path d="M0 0 C4.62 0 9.24 0 14 0 C12.11656068 5.65031797 11.19098872 7.25016798 7 11 C7 10.01 7 9.02 7 8 C7.66 8 8.32 8 9 8 C9 6.68 9 5.36 9 4 C9.66 4 10.32 4 11 4 C11 3.01 11 2.02 11 1 C7.37 1 3.74 1 0 1 C0 0.67 0 0.34 0 0 Z " fill="#728EBD" transform="translate(165,408)"/>
<path d="M0 0 C1.27351308 2.54702616 0.80191925 3.4282945 0.0625 6.125 C-0.13214844 6.84945312 -0.32679688 7.57390625 -0.52734375 8.3203125 C-0.76130859 9.15175781 -0.76130859 9.15175781 -1 10 C-1.66 10 -2.32 10 -3 10 C-3.33 14.95 -3.66 19.9 -4 25 C-4.33 25 -4.66 25 -5 25 C-5.58304881 15.2825198 -5.51935969 8.37759952 0 0 Z " fill="#CA5943" transform="translate(140,92)"/>
<path d="M0 0 C0.66 0.99 1.32 1.98 2 3 C1.59007813 3.51949219 1.18015625 4.03898437 0.7578125 4.57421875 C-2.07636576 8.2423777 -4.59828033 11.51449706 -6 16 C-6.33 15.01 -6.66 14.02 -7 13 C-6.33333333 11.66666667 -5.66666667 10.33333333 -5 9 C-4.83249586 6.33290931 -4.83249586 6.33290931 -5 4 C-4.34 4 -3.68 4 -3 4 C-1.36323743 2.0399719 -1.36323743 2.0399719 0 0 Z " fill="#ECF0ED" transform="translate(102,358)"/>
<path d="M0 0 C2.31 0 4.62 0 7 0 C4.30271832 3.33193619 0.97939813 4.60371996 -3 6 C-5.4375 5.6875 -5.4375 5.6875 -7 5 C-6 4 -6 4 -3.4375 3.9375 C-2.2309375 3.9684375 -2.2309375 3.9684375 -1 4 C-0.67 2.68 -0.34 1.36 0 0 Z " fill="#7993BC" transform="translate(155,428)"/>
<path d="M0 0 C0 0.99 0 1.98 0 3 C0.99 3 1.98 3 3 3 C3.33 4.32 3.66 5.64 4 7 C2.91332031 6.47599609 2.91332031 6.47599609 1.8046875 5.94140625 C-5.30984218 2.53954009 -5.30984218 2.53954009 -13 1 C-13 0.67 -13 0.34 -13 0 C-8.38926889 -1.29676812 -4.66159911 -0.71109139 0 0 Z " fill="#FDDDC2" transform="translate(186,76)"/>
<path d="M0 0 C3.0916909 2.52956528 3.90931332 5.22454612 5 9 C4.01 9 3.02 9 2 9 C-0.1875 6.5 -0.1875 6.5 -2 4 C-1.34 2.68 -0.68 1.36 0 0 Z " fill="#F3EEDD" transform="translate(226,294)"/>
<path d="M0 0 C3 2 3 2 4 4 C2.02 5.32 0.04 6.64 -2 8 C-2.66 6.68 -3.32 5.36 -4 4 C-2.68 3.34 -1.36 2.68 0 2 C0 1.34 0 0.68 0 0 Z " fill="#F3EBDE" transform="translate(195,268)"/>
<path d="M0 0 C0.66 0.33 1.32 0.66 2 1 C2.5497272 6.63470383 0.95047835 9.38987758 -2 14 C-2.66 14 -3.32 14 -4 14 C-3.69255859 13.11248047 -3.69255859 13.11248047 -3.37890625 12.20703125 C-2.0002429 8.16339184 -0.68249153 4.23144751 0 0 Z " fill="#E0D77E" transform="translate(359,211)"/>
<path d="M0 0 C2.56687367 3.8503105 1.83288724 5.58569763 1 10 C-0.32 9.01 -1.64 8.02 -3 7 C-2.625 4.0625 -2.625 4.0625 -2 1 C-1.34 0.67 -0.68 0.34 0 0 Z " fill="#FDEDD7" transform="translate(197,81)"/>
<path d="M0 0 C4.97306516 0.49730652 8.63799813 1.55302334 13 4 C12.34 4.66 11.68 5.32 11 6 C7.875 5.625 7.875 5.625 5 5 C5 4.34 5 3.68 5 3 C2.525 2.01 2.525 2.01 0 1 C0 0.67 0 0.34 0 0 Z " fill="#CF4B36" transform="translate(175,77)"/>
<path d="M0 0 C5.01113235 1.4317521 6.94469549 3.98445693 10 8 C9.34 8.66 8.68 9.32 8 10 C6.85157077 8.71064081 5.70633773 7.41843421 4.5625 6.125 C3.92441406 5.40570313 3.28632813 4.68640625 2.62890625 3.9453125 C1 2 1 2 0 0 Z " fill="#DCD27F" transform="translate(344,156)"/>
<path d="M0 0 C0.89203125 0.00902344 1.7840625 0.01804687 2.703125 0.02734375 C3.37859375 0.03894531 4.0540625 0.05054687 4.75 0.0625 C4.75 0.3925 4.75 0.7225 4.75 1.0625 C2.69921875 1.29036458 0.6484375 1.51822917 -1.40234375 1.74609375 C-3.26140229 1.88136614 -3.26140229 1.88136614 -4.25 3.0625 C-6.92058851 3.20365161 -9.57432238 3.10497107 -12.25 3.0625 C-8.04248553 0.25749035 -5.00014586 -0.06579139 0 0 Z " fill="#CE533A" transform="translate(168.25,75.9375)"/>
<path d="M0 0 C0.33 0.66 0.66 1.32 1 2 C3.01669827 3.13350534 3.01669827 3.13350534 5 4 C2.525 5.485 2.525 5.485 0 7 C-0.66 5.35 -1.32 3.7 -2 2 C-1.34 1.34 -0.68 0.68 0 0 Z " fill="#EFE8D8" transform="translate(196,145)"/>
<path d="M0 0 C6.57142857 4 6.57142857 4 8 8 C6.68 8 5.36 8 4 8 C3.67 7.01 3.34 6.02 3 5 C2.34 4.67 1.68 4.34 1 4 C0.375 1.9375 0.375 1.9375 0 0 Z " fill="#D14634" transform="translate(188,82)"/>
<path d="M0 0 C0.625 1.8125 0.625 1.8125 1 4 C0.34 4.99 -0.32 5.98 -1 7 C1.31 7 3.62 7 6 7 C6 7.33 6 7.66 6 8 C3.36 8 0.72 8 -2 8 C-1.125 1.125 -1.125 1.125 0 0 Z " fill="#EFE485" transform="translate(354,226)"/>
<path d="M0 0 C2 3 2 3 2 6 C0.35 6 -1.3 6 -3 6 C-1.125 1.125 -1.125 1.125 0 0 Z " fill="#E5DFD2" transform="translate(332,180)"/>
<path d="M0 0 C2.97 1.65 5.94 3.3 9 5 C5.71023192 6.09658936 4.28696233 5.79953138 1 5 C0.67 3.35 0.34 1.7 0 0 Z " fill="#EEF2F2" transform="translate(108,425)"/>
<path d="M0 0 C2.05078125 0.03255208 4.1015625 0.06510417 6.15234375 0.09765625 C3.53035601 2.25143189 1.50830203 3.49837799 -1.84765625 4.09765625 C-2.17765625 3.10765625 -2.50765625 2.11765625 -2.84765625 1.09765625 C-1.84765625 0.09765625 -1.84765625 0.09765625 0 0 Z " fill="#E3E2D2" transform="translate(181.84765625,406.90234375)"/>
<path d="M0 0 C0.66 0.66 1.32 1.32 2 2 C4.57061311 2.64767793 4.57061311 2.64767793 7 3 C7 3.33 7 3.66 7 4 C3.7 4 0.4 4 -3 4 C-2.01 2.68 -1.02 1.36 0 0 Z " fill="#BBD491" transform="translate(351,354)"/>
<path d="M0 0 C0.66 1.32 1.32 2.64 2 4 C1.01 5.485 1.01 5.485 0 7 C-1.32 6.67 -2.64 6.34 -4 6 C-2.68 4.02 -1.36 2.04 0 0 Z " fill="#EAE5D9" transform="translate(251,349)"/>
<path d="M0 0 C2.0625 0.4375 2.0625 0.4375 4 1 C3.67 2.32 3.34 3.64 3 5 C1.68 3.68 0.36 2.36 -1 1 C-0.67 0.67 -0.34 0.34 0 0 Z " fill="#F1EBDB" transform="translate(298,221)"/>
<path d="M0 0 C2.25245881 2.68841859 3.88213958 4.64641875 5 8 C4.01 7.67 3.02 7.34 2 7 C2 6.34 2 5.68 2 5 C1.01 4.67 0.02 4.34 -1 4 C-0.67 2.68 -0.34 1.36 0 0 Z " fill="#FDDAC2" transform="translate(138,125)"/>
</svg>
